<svg id="Camada_1" data-name="Camada 1" xmlns="http://www.w3.org/2000/svg" viewBox="0 0 358.68 88.04"><defs><style>.cls-1{fill:#fff;}</style></defs><title>frame</title><path class="cls-1" d="M244.54,326.93c0-13.18,0-26.14,0-39.1a23.47,23.47,0,0,0,.21-3c-1-7,.58-11.94,8.19-14.85,5.37-2.06,6.36-8.05,5.94-14,15.72,0,31.16,0,46.6,0q95.22-.36,190.42-.77c28.49-.09,57,.06,85.48,0,3,0,4.85.51,6,3.71,1.72,4.82,5.61,7.59,10.43,9.34,1.31.47,3,2.32,3,3.57q.51,27,.44,53.92c0,1.23-1.77,3.06-3.11,3.57-5.39,2-9.54,5.19-12.14,10.48a4.92,4.92,0,0,1-3.76,2c-45.8.51-91.6,1.07-137.4,1.25-30,.12-60-.5-89.94-.5-30.15,0-60.3.34-90.44.66-3.23,0-5.1-.51-6.22-3.95C256.09,332.6,251.07,328.67,244.54,326.93ZM422.87,340v-.53q77.94,0,155.88.09c3.61,0,5.51-1,7.56-4.06a22.13,22.13,0,0,1,8.49-7.21c3.14-1.49,4.08-3.14,4.07-6.37,0-15.15.1-30.31.19-45.47,0-3.09-1.07-4.92-4.11-6.53a22.49,22.49,0,0,1-8.19-7.58c-2-3.12-3.92-4.22-7.49-4.22q-59.19,0-118.36-.17c-20-.05-40-.26-60-.27-32.79,0-65.59.08-98.38.1-12.15,0-24.31-.15-36.46.05-1.67,0-4.46,1.41-4.77,2.65-1.63,6.52-5.59,10.64-11.33,13.75a7.42,7.42,0,0,0-3.46,5.26c-.3,14-.28,28,0,42,0,1.62,1.81,3.39,3.1,4.79,3.2,3.46,7.39,6.29,9.65,10.24,2,3.57,4.09,4.42,7.76,4.37,25.13-.38,50.27-.71,75.41-.83C369.24,339.92,396.05,340,422.87,340Z" transform="translate(-243.52 -255.16)"/><path class="cls-1" d="M251.58,261.65l2.35-5.37,1.83.28c-.15,2.5.54,5.53-.63,7.38-2,3.14-5.15,5.55-11.15,2.42l3.53-3,1.07,1.15-3.52-5.13,1-1.1Z" transform="translate(-243.52 -255.16)"/><path class="cls-1" d="M600.6,341l-5.1-2.27-2.85,3.43-1.64-.43c.31-2.32-.19-5.4,1.11-6.77,2-2.06,5.2-2.92,7.89-4.3l1.45,2.18-3.33,1.93Z" transform="translate(-243.52 -255.16)"/><path class="cls-1" d="M255,342.87l-2.81-3.16-5.87,2.73,1.76-6.58-4.54-3.62C250.93,330.13,255.28,334.16,255,342.87Z" transform="translate(-243.52 -255.16)"/><path class="cls-1" d="M590.25,256.33l2.67,2.11,5.58-3.2-2.16,5.23,5.87,2.9C595.15,266.49,590.57,263.63,590.25,256.33Z" transform="translate(-243.52 -255.16)"/><path class="cls-1" d="M596.82,299.34c0,7.49.16,15-.12,22.47-.06,1.5-1.53,3.18-2.76,4.36-2.9,2.8-6,5.44-9.12,8-1.52,1.21-3.37,2.8-5.09,2.83q-47.43.71-94.87,1c-27,.17-53.94.09-80.91.2q-65.7.29-131.38.65a18.71,18.71,0,0,0-3.49-.11c-4.79,1-6.67-1.42-8.85-5.42-1.83-3.36-6.06-5.35-8.94-8.23-1.42-1.42-3.13-3.47-3.14-5.24q-.18-19.49.45-39a7.9,7.9,0,0,1,3-5.42c5-3.52,9.2-7.52,11.45-13.44.45-1.18,2.64-2.43,4-2.42,23.78,0,47.56.37,71.34.38,25.47,0,50.94-.3,76.4-.37q39.7-.1,79.4,0c28.12.1,56.24.42,84.36.52,3.13,0,4.89.8,6.7,3.68,1.92,3.07,5.5,5.06,8.08,7.78,1.41,1.49,3.11,3.48,3.2,5.31.36,7.48.15,15,.15,22.47Zm-139.35,36.2v-.37q60.46,0,120.92-.11c1.62,0,3.42-1.45,4.82-2.6,3-2.48,5.91-5.13,8.67-7.9,1.1-1.09,2.37-2.67,2.41-4.06.37-14,.61-28,.56-41.95,0-1.82-1.6-3.9-3-5.41a92.64,92.64,0,0,0-8.5-8.19c-1.58-1.35-3.58-3.1-5.42-3.13q-33-.52-66-.51c-41.8,0-83.61.11-125.42.11q-58.71,0-117.43-.17c-2.64,0-3.75.92-5.26,3.21-2.86,4.34-6.85,7.91-10.24,11.91-1.27,1.5-3.06,3.27-3.11,5-.33,12-.28,24-.34,36,0,2.8.67,4.81,3.57,6.4s6.11,4.05,7.64,6.94c2.6,4.88,6.14,6.4,11.22,5.92,1.64-.15,3.32.24,5,.22,26.3-.4,52.6-1,78.91-1.2C390.18,335.37,423.83,335.54,457.47,335.54Z" transform="translate(-243.52 -255.16)"/></svg>